<svg xmlns="http://www.w3.org/2000/svg" viewBox="0 0 712.225 314.908" class="w-24 h-full text-white" width="150" height="80">
  <g fill="#fff">
    <path d="M2.13 290.854 165.323 8.194a15.935 15.935 0 0 1 5.996-6.063c7.666-4.404 17.45-1.763 21.855 5.903l162.514 281.483a16.007 16.007 0 0 1 2.97 9.313c0 8.88-7.198 16.078-16.077 16.078H16.01v-.067a15.937 15.937 0 0 1-7.977-2.132c-7.664-4.404-10.306-14.19-5.902-21.855Zm88.662-121.271 81.538 141.229a7.999 7.999 0 0 0 13.916.08l81.2-140.641a8.035 8.035 0 0 0-6.55-12.687l-81.592 19.917-81.576-19.917v.035a7.999 7.999 0 0 0-6.936 11.985" fill-rule="evenodd"></path>
    <path d="M397.954 218.818v17.311h38.436v78.779h19.364v-78.779h38.435v-17.31zm134.815 69.243v-42.396c0-5.72 3.814-9.536 9.535-9.536h38.436c5.72 0 9.683 3.815 9.683 9.536v3.813h19.217v-1.906c0-17.31-11.59-28.754-28.9-28.754h-38.436c-17.31 0-28.753 11.443-28.753 28.754v38.436c0 17.31 11.442 28.9 28.753 28.9h38.436c17.31 0 28.9-11.59 28.9-28.9V259.16h-47.677v17.31h28.46v11.59c0 5.723-3.962 9.536-9.683 9.536h-38.436c-5.72 0-9.535-3.813-9.535-9.536m96.232-69.243v96.09h83.224v-17.311h-64.007v-78.779z"></path>
  </g>
</svg>
