
<svg xmlns="http://www.w3.org/2000/svg" xml:space="preserve" viewBox="0 0 308.133 270.546">
  <path fill='#ffffff' fill-rule="evenodd" d="M1.83 249.88 142.034 7.04a13.69 13.69 0 0 1 5.151-5.21c6.586-3.783 14.992-1.514 18.776 5.072l139.62 241.83a13.752 13.752 0 0 1 2.553 8.001c0 7.63-6.185 13.813-13.813 13.813H13.755v-.058a13.692 13.692 0 0 1-6.853-1.831c-6.585-3.784-8.855-12.192-5.071-18.776zm76.172-104.187 70.052 121.334a6.872 6.872 0 0 0 11.955.07l69.761-120.83a6.903 6.903 0 0 0-5.627-10.9l-70.098 17.112-70.084-17.112v.03A6.872 6.872 0 0 0 78 145.694"/>
</svg>
